name Walk8.mot
datacolumns 19
datarows 20
range 0.79500000 0.81400000
endheader

                time	   L_ground_force_vx	   L_ground_force_vy	   L_ground_force_vz	   L_ground_force_px	   L_ground_force_py	   L_ground_force_pz	   R_ground_force_vx	   R_ground_force_vy	   R_ground_force_vz	   R_ground_force_px	   R_ground_force_py	   R_ground_force_pz	   L_ground_torque_x	   L_ground_torque_y	   L_ground_torque_z	   R_ground_torque_x	   R_ground_torque_y	   R_ground_torque_z	
          0.79500000	          0.00000000	          0.00000000	          0.00000000	          0.00000000	          0.00000000	          0.00000000	          0.00000000	          0.00000000	          0.00000000	          0.00000000	          0.00000000	          0.00000000	          0.00000000	          0.00000000	          0.00000000	          0.00000000	          0.00000000	          0.00000000	
          0.79600000	          0.00000000	          0.00000000	          0.00000000	          0.00000000	          0.00000000	          0.00000000	          0.00000000	          0.00000000	          0.00000000	          0.00000000	          0.00000000	          0.00000000	          0.00000000	          0.00000000	          0.00000000	          0.00000000	          0.00000000	          0.00000000	
          0.79700000	          0.00000000	          0.00000000	          0.00000000	          0.00000000	          0.00000000	          0.00000000	          0.00000000	          0.00000000	          0.00000000	          0.00000000	          0.00000000	          0.00000000	          0.00000000	          0.00000000	          0.00000000	          0.00000000	          0.00000000	          0.00000000	
          0.79800000	          0.00000000	          0.00000000	          0.00000000	          0.00000000	          0.00000000	          0.00000000	          0.00000000	          0.00000000	          0.00000000	          0.00000000	          0.00000000	          0.00000000	          0.00000000	          0.00000000	          0.00000000	          0.00000000	          0.00000000	          0.00000000	
          0.79900000	          0.00000000	          0.00000000	          0.00000000	          0.00000000	          0.00000000	          0.00000000	          0.82866290	         13.47909386	         -0.77918528	         -0.25590784	          0.00000000	         -0.01239610	          0.00000000	          0.00000000	          0.00000000	          0.00000000	          0.01231664	          0.00000000	
          0.80000000	          0.00000000	          0.00000000	          0.00000000	          0.00000000	          0.00000000	          0.00000000	          1.34401470	         31.94550217	         -1.45351207	         -0.25707802	          0.00000000	         -0.01896959	          0.00000000	          0.00000000	          0.00000000	          0.00000000	          0.07861208	          0.00000000	
          0.80100000	          0.00000000	          0.00000000	          0.00000000	          0.00000000	          0.00000000	          0.00000000	          1.82548580	         61.58782385	         -2.34276677	         -0.25780274	          0.00000000	         -0.02065933	          0.00000000	          0.00000000	          0.00000000	          0.00000000	          0.18418263	          0.00000000	
          0.80200000	          0.00000000	          0.00000000	          0.00000000	          0.00000000	          0.00000000	          0.00000000	          2.18079288	        104.82327235	         -3.42108870	         -0.25828317	          0.00000000	         -0.02050114	          0.00000000	          0.00000000	          0.00000000	          0.00000000	          0.32541176	          0.00000000	
          0.80300000	          0.00000000	          0.00000000	          0.00000000	          0.00000000	          0.00000000	          0.00000000	          2.46254631	        161.90800709	         -4.68093947	         -0.25860642	          0.00000000	         -0.01971239	          0.00000000	          0.00000000	          0.00000000	          0.00000000	          0.48881276	          0.00000000	
          0.80400000	          0.00000000	          0.00000000	          0.00000000	          0.00000000	          0.00000000	          0.00000000	          2.84220253	        229.17527816	         -6.15753315	         -0.25883420	          0.00000000	         -0.01883555	          0.00000000	          0.00000000	          0.00000000	          0.00000000	          0.65829413	          0.00000000	
          0.80500000	          0.00000000	          0.00000000	          0.00000000	          0.00000000	          0.00000000	          0.00000000	          3.44914261	        298.64195441	         -7.93183380	         -0.25899260	          0.00000000	         -0.01803389	          0.00000000	          0.00000000	          0.00000000	          0.00000000	          0.81204375	          0.00000000	
          0.80600000	          0.00000000	          0.00000000	          0.00000000	          0.00000000	          0.00000000	          0.00000000	          4.19211435	        360.14238253	        -10.11057933	         -0.25905889	          0.00000000	         -0.01729753	          0.00000000	          0.00000000	          0.00000000	          0.00000000	          0.91869377	          0.00000000	
          0.80700000	          0.00000000	          0.00000000	          0.00000000	          0.00000000	          0.00000000	          0.00000000	          4.73821332	        405.27032235	        -12.78157817	         -0.25896640	          0.00000000	         -0.01659952	          0.00000000	          0.00000000	          0.00000000	          0.00000000	          0.95222508	          0.00000000	
          0.80800000	          0.00000000	          0.00000000	          0.00000000	          0.00000000	          0.00000000	          0.00000000	          4.69863142	        430.48961918	        -15.96303528	         -0.25865518	          0.00000000	         -0.01595351	          0.00000000	          0.00000000	          0.00000000	          0.00000000	          0.91277986	          0.00000000	
          0.80900000	          0.00000000	          0.00000000	          0.00000000	          0.00000000	          0.00000000	          0.00000000	          3.85088286	        437.55167356	        -19.57087364	         -0.25812441	          0.00000000	         -0.01539683	          0.00000000	          0.00000000	          0.00000000	          0.00000000	          0.82919337	          0.00000000	
          0.81000000	          0.00000000	          0.00000000	          0.00000000	          0.00000000	          0.00000000	          0.00000000	          2.21844663	        431.70981366	        -23.41358998	         -0.25742911	          0.00000000	         -0.01496876	          0.00000000	          0.00000000	          0.00000000	          0.00000000	          0.74161624	          0.00000000	
          0.81100000	          0.00000000	          0.00000000	          0.00000000	          0.00000000	          0.00000000	          0.00000000	         -0.00846812	        419.32208910	        -27.22230143	         -0.25664818	          0.00000000	         -0.01469438	          0.00000000	          0.00000000	          0.00000000	          0.00000000	          0.68114693	          0.00000000	
          0.81200000	          0.00000000	          0.00000000	          0.00000000	          0.00000000	          0.00000000	          0.00000000	         -2.61660983	        405.99929926	        -30.70808713	         -0.25586433	          0.00000000	         -0.01455955	          0.00000000	          0.00000000	          0.00000000	          0.00000000	          0.66078154	          0.00000000	
          0.81300000	          0.00000000	          0.00000000	          0.00000000	          0.00000000	          0.00000000	          0.00000000	         -5.46768214	        395.62914213	        -33.62978527	         -0.25513943	          0.00000000	         -0.01451317	          0.00000000	          0.00000000	          0.00000000	          0.00000000	          0.67680613	          0.00000000	
          0.81400000	          0.00000000	          0.00000000	          0.00000000	          0.00000000	          0.00000000	          0.00000000	         -8.52159017	        390.13901398	        -35.85398129	         -0.25449128	          0.00000000	         -0.01451262	          0.00000000	          0.00000000	          0.00000000	          0.00000000	          0.71852419	          0.00000000	
